<svg width="10" height="14" viewBox="0 0 10 14" fill="none" xmlns="http://www.w3.org/2000/svg">
<path d="M4.9987 0.333008C2.4187 0.333008 0.332031 2.41967 0.332031 4.99967C0.332031 7.77967 3.2787 11.613 4.49203 13.073C4.7587 13.393 5.24537 13.393 5.51203 13.073C6.7187 11.613 9.66537 7.77967 9.66537 4.99967C9.66537 2.41967 7.5787 0.333008 4.9987 0.333008ZM4.9987 6.66634C4.0787 6.66634 3.33203 5.91967 3.33203 4.99967C3.33203 4.07967 4.0787 3.33301 4.9987 3.33301C5.9187 3.33301 6.66536 4.07967 6.66536 4.99967C6.66536 5.91967 5.9187 6.66634 4.9987 6.66634Z" fill="#1DB954"/>
</svg>
