<svg width="23" height="18" viewBox="0 0 23 18" fill="none" xmlns="http://www.w3.org/2000/svg">
<path d="M3.25098 17.8809H19.1943C21.0928 17.8809 22.0947 16.8965 22.0947 15.0156V5.78711C22.0947 3.90625 21.0928 2.92188 19.1943 2.92188H16.7949C16.1094 2.92188 15.8896 2.80762 15.459 2.35938L14.7646 1.6123C14.3076 1.12891 13.8418 0.891602 12.9453 0.891602H9.45605C8.55957 0.891602 8.10254 1.12891 7.63672 1.6123L6.94238 2.35938C6.52051 2.79883 6.29199 2.92188 5.60645 2.92188H3.25098C1.35254 2.92188 0.359375 3.90625 0.359375 5.78711V15.0156C0.359375 16.8965 1.35254 17.8809 3.25098 17.8809ZM3.36523 16.1318C2.56543 16.1318 2.1084 15.71 2.1084 14.8574V5.94531C2.1084 5.10156 2.56543 4.67969 3.36523 4.67969H6.11621C6.90723 4.67969 7.31152 4.53906 7.75977 4.05566L8.42773 3.31738C8.91992 2.78125 9.18359 2.64062 9.95703 2.64062H12.4443C13.2178 2.64062 13.4814 2.78125 13.9648 3.30859L14.6416 4.05566C15.0898 4.53906 15.4941 4.67969 16.2852 4.67969H19.0801C19.8887 4.67969 20.3369 5.10156 20.3369 5.94531V14.8574C20.3369 15.71 19.8887 16.1318 19.0801 16.1318H3.36523ZM11.2314 5.18945C10.1943 5.18945 9.19238 5.54102 8.48926 6.10352C8.05859 6.4375 7.95312 6.89453 8.24316 7.22852C8.52441 7.5625 8.9375 7.58008 9.31543 7.30762C9.89551 6.85938 10.4844 6.63965 11.2314 6.63965C12.8047 6.63965 14.1143 7.67676 14.4922 9.07422H13.6309C13.2178 9.07422 13.0947 9.47852 13.3408 9.8125L14.7207 11.6934C14.958 12.0273 15.3799 12.0449 15.626 11.6934L16.9795 9.8125C17.2256 9.47852 17.1113 9.07422 16.6895 9.07422H15.8984C15.4941 6.78906 13.6045 5.18945 11.2314 5.18945ZM5.73828 10.7002H6.56445C6.97754 12.9854 8.86719 14.585 11.2402 14.585C12.2773 14.585 13.2705 14.2422 13.9824 13.6709C14.4131 13.3457 14.5186 12.8799 14.2285 12.5459C13.9473 12.2119 13.5342 12.1943 13.1475 12.4668C12.5674 12.9062 11.9873 13.1348 11.2402 13.1348C9.66699 13.1348 8.35742 12.0977 7.9707 10.7002H8.79688C9.20996 10.7002 9.33301 10.2959 9.08691 9.96191L7.71582 8.08105C7.46973 7.74707 7.05664 7.73828 6.80176 8.08105L5.44824 9.96191C5.21094 10.2959 5.31641 10.7002 5.73828 10.7002Z" fill="#191414" fill-opacity="0.5"/>
</svg>
