<svg width="18" height="18" viewBox="0 0 18 18" fill="none" xmlns="http://www.w3.org/2000/svg">
<path d="M7.22949 14.0332C8.62695 14.0332 9.93652 13.6113 11.0264 12.8906L14.876 16.749C15.1309 16.9951 15.4561 17.1182 15.8076 17.1182C16.5371 17.1182 17.0732 16.5469 17.0732 15.8262C17.0732 15.4922 16.959 15.167 16.7129 14.9209L12.8896 11.0801C13.6807 9.95508 14.1465 8.59277 14.1465 7.11621C14.1465 3.31055 11.0352 0.199219 7.22949 0.199219C3.43262 0.199219 0.3125 3.31055 0.3125 7.11621C0.3125 10.9219 3.42383 14.0332 7.22949 14.0332ZM7.22949 12.1875C4.44336 12.1875 2.1582 9.90234 2.1582 7.11621C2.1582 4.33008 4.44336 2.04492 7.22949 2.04492C10.0156 2.04492 12.3008 4.33008 12.3008 7.11621C12.3008 9.90234 10.0156 12.1875 7.22949 12.1875Z" fill="#191414" fill-opacity="0.5"/>
</svg>
